<?xml version="1.0" encoding="UTF-8" standalone="no"?>
<svg width="80px" height="80px" viewBox="0 0 80 80" version="1.1" xmlns="http://www.w3.org/2000/svg" xmlns:xlink="http://www.w3.org/1999/xlink">
    <!-- Generator: Sketch 48 (47235) - http://www.bohemiancoding.com/sketch -->
    <title>久安-logo@2x</title>
    <desc>Created with Sketch.</desc>
    <defs></defs>
    <g id="4-2交易大厅-左侧导航-未登录" stroke="none" stroke-width="1" fill="none" fill-rule="evenodd" transform="translate(-85.000000, -50.000000)">
        <g id="久安-logo" transform="translate(85.000000, 50.000000)">
            <rect id="Rectangle-9" fill="#4982FF" x="0" y="0" width="80" height="80" rx="6"></rect>
            <g id="久安钱包-LOGO" transform="translate(13.000000, 9.000000)" fill="#FFFFFF">
                <path d="M51.2615385,21.5469815 L51.2461538,17.0075463 L26.9538462,3.09785784 L2.69230769,17.06889 L2.70769231,21.5469815 L0.0153846154,21.5469815 L0,15.5199611 L26.9538462,0 L53.9538462,15.4432814 L53.9692308,21.5469815 L51.2615385,21.5469815 Z M2.73846154,42.1431353 L2.75384615,46.0077897 L27.0461538,59.9021422 L51.3076923,45.93111 L51.2923077,42.1277994 L53.9846154,42.1277994 L54,47.464703 L27.0461538,63 L0.0461538462,47.5567186 L0.0307692308,42.1277994 L2.73846154,42.1277994 L2.73846154,42.1431353 Z" id="Shape"></path>
                <g id="XMLID_7_" transform="translate(23.000000, 3.000000)">
                    <polygon id="XMLID_10_" points="1.53162393 2.09807471 7.87254701 19.4843261 10.2618803 19.4843261 2.35870085 0.138843179 0 0.138843179"></polygon>
                    <polygon id="XMLID_8_" points="18.2722735 49.9064094 20.6769231 49.9064094 16.6334359 39.0303604 14.274735 39.0303604"></polygon>
                </g>
                <g id="XMLID_12_" transform="translate(20.000000, 9.000000)">
                    <polygon id="XMLID_15_" points="19.1811024 1.9326087 14.2204724 13.7565217 11.7480315 13.7565217 17.1181102 0 19.8897638 0"></polygon>
                    <polygon id="XMLID_13_" points="2.47244094 48.9847826 0 48.9847826 6.23622047 33.0521739 8.66141732 33.0521739"></polygon>
                </g>
                <path d="M51.6403585,39.809291 L47.5799364,33.8178484 C46.6452732,32.4352078 45.7259324,30.9254279 45.0211044,29.4792176 L44.9444926,29.49511 C45.0670714,31.1161369 45.1130385,32.7689487 45.1130385,35.0256724 L45.1130385,39.809291 L42.9525875,39.809291 L42.9525875,27 L45.4960971,27 L49.5258745,32.9278729 C50.4911824,34.3264059 51.3645562,35.804401 52.0234172,37.1552567 L52.0847066,37.1393643 C51.9008384,35.391198 51.839549,33.7542787 51.839549,31.7200489 L51.839549,27 L54,27 L54,39.809291 L51.6403585,39.809291 Z M32.9317722,29.0342298 L29.1165077,39.809291 L26.8794449,39.809291 L31.598728,27 L34.4640069,27 L39.18329,39.809291 L36.8849378,39.809291 L32.9317722,29.0342298 Z M17.624747,40 C14.4530211,40 12.3232148,38.4584352 12.3232148,34.6442543 L12.3232148,27.0158924 L14.667534,27.0158924 L14.667534,34.7713936 C14.667534,37.3300733 15.9392888,38.4266504 17.7166811,38.4266504 C19.6472969,38.4266504 20.8577624,37.3141809 20.8577624,34.7713936 L20.8577624,27 L23.2020815,27 L23.2020815,34.5806846 C23.2020815,38.3789731 20.9190517,40 17.624747,40 Z M3.02254987,40 C2.31772188,40 1.49031512,39.9046455 1,39.7457213 L1.27580225,38.1405868 C1.65886094,38.2518337 2.17982076,38.3471883 2.808037,38.3471883 C4.3555941,38.3471883 5.30557965,37.7750611 5.30557965,35.502445 L5.30557965,27 L7.64989881,27 L7.64989881,35.5660147 C7.66522116,38.9352078 5.73460538,40 3.02254987,40 Z" id="XMLID_2_"></path>
            </g>
        </g>
    </g>
</svg>