<?xml version="1.0" encoding="UTF-8" standalone="no"?>
<svg width="20px" height="20px" viewBox="0 0 20 20" version="1.1" xmlns="http://www.w3.org/2000/svg" xmlns:xlink="http://www.w3.org/1999/xlink">
    <!-- Generator: Sketch 48 (47235) - http://www.bohemiancoding.com/sketch -->
    <title>微信支付@2x</title>
    <desc>Created with Sketch.</desc>
    <defs></defs>
    <g id="14-近期订单-卖方-等待释放UET" stroke="none" stroke-width="1" fill="none" fill-rule="evenodd" transform="translate(-206.000000, -319.000000)">
        <g id="内容3" transform="translate(0.000000, 300.000000)" fill="#59B64C" fill-rule="nonzero">
            <g id="微信支付" transform="translate(206.000000, 19.000000)">
                <path d="M15.294,0 L4.706,0 C2.1068,0 0,2.1068 0,4.706 L0,15.294 C0,17.8932 2.1068,20 4.706,20 L15.294,20 C17.8932,20 20,17.8932 20,15.294 L20,4.706 C20,2.1068 17.8932,0 15.294,0 Z M10,15.3344 C9.27805346,15.3354211 8.55946064,15.2362074 7.8648,15.0396 C7.666,15.0756 7.472,15.1336 7.286,15.2128 L5.976,16.0352 C5.588,16.2948 5.4616,16.1968 5.5972,15.7412 L5.8884,14.7132 C5.9084,14.5104 5.8904,14.3052 5.8352,14.1092 C4.2544,13.054 3.2352,11.4144 3.2352,9.5792 C3.2352,6.4092 6.274,3.8232 10,3.8232 C12.2728,3.8232 14.2896,4.7856 15.5172,6.2552 L9.212,9.25 C8.7772,9.5116 8.3428,9.5664 7.908,9.1676 L6.9028,8.2636 C6.4436,8.1264 6.2804,8.2728 6.4136,8.7016 L7.5004,11.3604 C7.7444,11.7592 8.1048,11.8924 8.7228,11.4424 L16.0372,6.9876 C16.502,7.7672 16.7644,8.6476 16.7644,9.5788 C16.7644,12.7492 13.726,15.3344 10,15.3344 Z" id="Shape"></path>
            </g>
        </g>
    </g>
</svg>