<?xml version="1.0" encoding="UTF-8" standalone="no"?>
<svg width="20px" height="20px" viewBox="0 0 20 20" version="1.1" xmlns="http://www.w3.org/2000/svg" xmlns:xlink="http://www.w3.org/1999/xlink">
    <!-- Generator: Sketch 48 (47235) - http://www.bohemiancoding.com/sketch -->
    <title>支付宝@2x</title>
    <desc>Created with Sketch.</desc>
    <defs></defs>
    <g id="14-近期订单-卖方-等待释放UET" stroke="none" stroke-width="1" fill="none" fill-rule="evenodd" transform="translate(-115.000000, -319.000000)">
        <g id="内容3" transform="translate(0.000000, 300.000000)" fill="#03A9F3" fill-rule="nonzero">
            <g id="支付宝" transform="translate(115.000000, 19.000000)">
                <path d="M12.57,13.0376923 C10.8176923,15.14 9.00692309,16.4253846 6.2623077,16.4253846 C3.51615385,16.4253846 1.70538461,14.7315385 1.93923076,12.6869231 C2.05615385,11.3438462 2.99076922,9.12384617 7.02076924,9.47461539 C9.12384615,9.64923078 10.1169231,10.0584615 11.8692308,10.6423077 C12.3361538,9.82461539 12.6869231,8.89 12.9792308,7.95538461 L5.26846154,7.95538461 L5.26846154,7.19615385 L9.06538461,7.19615385 L9.06538461,5.85384615 L4.45076924,5.85384615 L4.45076924,4.97692309 L9.06538461,4.97692309 L9.06538461,2.99153846 C9.06538461,2.99153846 9.12384615,2.69923076 9.47461539,2.69923076 L11.4015385,2.69923076 L11.4015385,4.97692309 L16.3084615,4.97692309 L16.3084615,5.79461539 L11.3430769,5.79461539 L11.3430769,7.1376923 L15.3738462,7.1376923 C15.0437427,8.5772252 14.4920376,9.95674736 13.7384615,11.2269231 C14.7307692,11.5769231 18.7615385,12.8038462 19.93,13.1546154 L19.93,2.9323077 C19.93,1.29692309 18.5861538,0.011538457 17.0092308,0.011538457 L2.9323077,0.011538457 C1.29692309,0.011538457 0.011538457,1.35538461 0.011538457,2.9323077 L0.011538457,17.0676923 C0.011538457,18.7030769 1.35538461,19.9884615 2.9323077,19.9884615 L17.0676923,19.9884615 C18.7030769,19.9884615 19.9884615,18.6453846 19.9884615,17.0676923 L19.9884615,16.3676923 C18.9953846,15.9 14.5561538,13.9723077 12.57,13.0369231 L12.57,13.0376923 Z" id="Shape"></path>
                <path d="M2.75692309,12.5115385 C2.58153848,13.2707692 3.04923078,15.0815385 5.96923076,15.0815385 C7.72153846,15.0815385 9.47461537,13.9723077 10.8761538,12.1615385 C8.89,11.1684615 7.25461539,10.7007692 5.38538461,10.7007692 C3.75,10.7592308 2.93153846,11.7523077 2.75692309,12.5115385 Z" id="Shape"></path>
            </g>
        </g>
    </g>
</svg>