<?xml version="1.0" encoding="UTF-8" standalone="no"?>
<svg width="20px" height="20px" viewBox="0 0 20 20" version="1.1" xmlns="http://www.w3.org/2000/svg" xmlns:xlink="http://www.w3.org/1999/xlink">
    <!-- Generator: Sketch 48 (47235) - http://www.bohemiancoding.com/sketch -->
    <title>银行卡支付@2x</title>
    <desc>Created with Sketch.</desc>
    <defs></defs>
    <g id="14-近期订单-卖方-等待释放UET" stroke="none" stroke-width="1" fill="none" fill-rule="evenodd" transform="translate(-236.000000, -319.000000)">
        <g id="内容3" transform="translate(0.000000, 300.000000)" fill="#B565FF" fill-rule="nonzero">
            <g id="银行卡支付" transform="translate(236.000000, 19.000000)">
                <path d="M12.3953488,13 L13.5581395,13 L13.5581395,15 L12.3953488,15 L12.3953488,13 Z M10,13 L11.1627907,13 L11.1627907,15 L10,15 L10,13 Z M14.8372093,13 L16,13 L16,15 L14.8372093,15 L14.8372093,13 Z" id="Shape"></path>
                <path d="M16,0 L4,0 C1.8,0 0,1.8 0,4 L0,16 C0,18.2 1.8,20 4,20 L16,20 C18.2,20 20,18.2 20,16 L20,4 C20,1.8 18.2,0 16,0 Z M17,14.6451613 C17,15.3677419 16.4518072,16 15.7349398,16 L4.26506024,16 C3.59036145,16 3,15.4129032 3,14.6451613 L3,9 L17,9 L17,14.6451613 Z M17,7 L3,7 L3,5.42857143 C3,4.66666667 3.54819277,4 4.26506024,4 L15.7349398,4 C16.4096386,4 17,4.61904762 17,5.42857143 L17,7 Z" id="Shape"></path>
            </g>
        </g>
    </g>
</svg>